{"title":"From.Dusk.Till.Dawn.S01E01.HDTV.x264-BATV","uid":9854225,"size":333972180,"categoryP":"video","categoryS":"tv_shows","magnet":"?xt=urn:btih:d67ed797365a19f49cb7ecdabdf78948ce3291b0&amp;dn=From.Dusk.Till.Dawn.S01E01.HDTV.x264-BATV&amp;tr=udp%3A%2F%2Ftracker.openbittorrent.com%3A80&amp;tr=udp%3A%2F%2Fopen.demonii.com%3A1337&amp;tr=udp%3A%2F%2Ftracker.coppersurfer.tk%3A6969&amp;tr=udp%3A%2F%2Fexodus.desync.com%3A6969","seeders":12,"leechers":2,"uploader":".SceNe.","files":1,"time":1396204011,"description":"General\nComplete name : From.Dusk.Till.Dawn.S01E01.HDTV.x264-BATV.mp4\nFormat : MPEG-4\nFormat profile : Base Media\nCodec ID : isom\nFile size : 319 MiB\nDuration : 44mn 3s\nOverall bit rate mode : Variable\nOverall bit rate : 1 011 Kbps\nEncoded date : UTC 2014-03-30 12:51:14\nTagged date : UTC 2014-03-30 12:51:14\n\nVideo\nID : 2\nFormat : AVC\nFormat/Info : Advanced Video Codec\nFormat profile : &lt;a class=&quot;__cf_email__&quot; href=&quot;/cdn-cgi/l/email-protection&quot; data-cfemail=&quot;521a3b353a121e617c63&quot;&gt;[email&amp;#160;protected]&lt;/a&gt;&lt;script cf-hash='f9e31' type=&quot;text/javascript&quot;&gt;\n/* &lt;![CDATA[ */!function(){try{var t=&quot;currentScript&quot;in document?document.currentScript:function(){for(var t=document.getElementsByTagName(&quot;script&quot;),e=t.length;e--;)if(t[e].getAttribute(&quot;cf-hash&quot;))return t[e]}();if(t&amp;&amp;t.previousSibling){var e,r,n,i,c=t.previousSibling,a=c.getAttribute(&quot;data-cfemail&quot;);if(a){for(e=&quot;&quot;,r=parseInt(a.substr(0,2),16),n=2;a.length-n;n+=2)i=parseInt(a.substr(n,2),16)^r,e+=String.fromCharCode(i);e=document.createTextNode(e),c.parentNode.replaceChild(e,c)}}}catch(u){}}();/* ]]&gt; */&lt;/script&gt;\nFormat settings, CABAC : Yes\nFormat settings, ReFrames : 5 frames\nCodec ID : avc1\nCodec ID/Info : Advanced Video Coding\nDuration : 44mn 3s\nSource duration : 44mn 3s\nBit rate : 916 Kbps\nMaximum bit rate : 7 020 Kbps\nWidth : 720 pixels\nHeight : 404 pixels\nDisplay aspect ratio : 16:9\nFrame rate mode : Constant\nFrame rate : 23.976 fps\nColor space : YUV\nChroma subsampling : 4:2:0\nBit depth : 8 bits\nScan type : Progressive\nBits/(Pixel*Frame) : 0.131\nStream size : 289 MiB (91%)\nSource stream size : 289 MiB (91%)\nWriting library : x264 core 142 r2409 d6b4e63\nEncoding settings : cabac=1 / ref=5 / deblock=1:0:0 / analyse=0x3:0x113 / me=umh / subme=8 / psy=1 / psy_rd=1.00:0.00 / mixed_ref=1 / me_range=16 / chroma_me=1 / trellis=1 / 8x8dct=1 / cqm=0 / deadzone=21,11 / fast_pskip=1 / chroma_qp_offset=-2 / threads=12 / lookahead_threads=2 / sliced_threads=0 / nr=0 / decimate=1 / interlaced=0 / bluray_compat=0 / constrained_intra=0 / bframes=3 / b_pyramid=2 / b_adapt=2 / b_bias=0 / direct=3 / weightb=1 / open_gop=0 / weightp=2 / keyint=250 / keyint_min=23 / scenecut=40 / intra_refresh=0 / rc_lookahead=50 / rc=crf / mbtree=1 / crf=19.0 / qcomp=0.60 / qpmin=0 / qpmax=69 / qpstep=4 / ip_ratio=1.40 / aq=1:1.00\nEncoded date : UTC 2014-03-30 11:21:56\nTagged date : UTC 2014-03-30 12:51:15\nMatrix coefficients : BT.709\n\nAudio\nID : 1\nFormat : AAC\nFormat/Info : Advanced Audio Codec\nFormat profile : LC\nCodec ID : 40\nDuration : 44mn 3s\nBit rate mode : Variable\nBit rate : 90.0 Kbps\nMaximum bit rate : 103 Kbps\nChannel(s) : 2 channels\nChannel positions : Front: L R\nSampling rate : 48.0 KHz\nCompression mode : Lossy\nStream size : 28.4 MiB (9%)\nEncoded date : UTC 2014-03-30 12:51:14\nTagged date : UTC 2014-03-30 12:51:15","torrent":{"xt":"urn:btih:d67ed797365a19f49cb7ecdabdf78948ce3291b0","amp;dn":"From.Dusk.Till.Dawn.S01E01.HDTV.x264-BATV","amp;tr":["udp%3A%2F%2Ftracker.openbittorrent.com%3A80","udp%3A%2F%2Fopen.demonii.com%3A1337","udp%3A%2F%2Ftracker.coppersurfer.tk%3A6969","udp%3A%2F%2Fexodus.desync.com%3A6969"],"infoHash":"d67ed797365a19f49cb7ecdabdf78948ce3291b0","infoHashBuffer":{"type":"Buffer","data":[214,126,215,151,54,90,25,244,156,183,236,218,189,247,137,72,206,50,145,176]},"announce":[],"urlList":[]}}